<svg xmlns="http://www.w3.org/2000/svg" width="448" height="243" viewBox="0 0 448 243" fill="none"><path d="M102.353 194.309C107.183 184.298 112.769 173.376 119.109 161.545C125.45 149.41 132.243 137.275 139.489 125.14C146.736 112.702 154.284 100.416 162.134 88.2809C170.286 76.1461 178.74 64.6179 187.495 53.6966C196.251 43.0786 205.007 35.4944 213.763 30.9438C222.821 26.0899 231.275 23.6629 239.125 23.6629C254.825 23.6629 266.449 29.4269 273.997 40.955C280 49 285.319 61 285.319 83.7303C285.319 100.945 283.248 118.45 281.696 135.607C281.394 141.978 281.243 148.045 281.243 153.809C281.243 161.09 281.545 168.067 282.149 174.742C283.055 181.416 284.564 187.331 286.678 192.489C288.791 197.343 291.811 201.286 295.736 204.32C299.661 207.051 304.793 208.416 311.134 208.416C322.607 208.416 333.778 204.017 344.647 195.219C355.517 186.118 365.48 175.5 374.538 163.365C383.898 150.927 391.899 138.337 398.541 125.596C405.485 112.854 410.384 102.848 414.5 94.5C415.561 92.3483 417.915 88.5 420.28 86.9157C422.777 85.2431 426.263 84.3407 429.79 84.1854C434 84 437.982 84.3989 442.5 88.5C445.821 92.1404 447.5 96.7528 447.5 101C447.5 103.124 446.547 106.18 445.641 108.303C444.434 110.73 442.018 115.736 438.395 123.32C434.772 130.904 429.941 139.702 423.903 149.713C418.166 159.421 411.373 169.888 403.523 181.112C395.673 192.034 386.917 202.045 377.255 211.146C367.896 220.247 357.63 227.831 346.459 233.899C335.59 239.966 324.116 243 312.039 243C298.453 243 287.433 240.421 278.979 235.264C270.525 229.803 263.882 222.826 259.052 214.331C254.221 205.534 250.9 195.977 249.088 185.663C247.742 178 246.824 168.5 246.824 153.809C246.824 142.504 247.869 133 249.088 120.135C250.498 105.262 256.3 71.5 248.5 62.5C246.292 59.9523 243 57.7921 239.125 57.7921C234.294 57.7921 228.708 60.6742 222.368 66.4382C216.329 71.8989 209.838 79.1798 202.894 88.2809C196.251 97.382 189.307 107.697 182.061 119.225C175.117 130.449 168.474 141.674 162.134 152.899C156.095 164.124 150.359 174.893 144.924 185.208C139.791 195.219 135.715 203.562 132.696 210.236C126.658 222.977 120.619 231.472 114.581 235.719C108.542 240.27 102.353 242.545 96.0122 242.545C87.2563 242.545 80.1611 239.966 74.7264 234.809C69.5937 229.348 67.0274 221.764 67.0274 212.056C67.0274 209.933 67.3293 205.837 67.9331 199.77C68.537 193.399 69.2918 185.966 70.1976 177.472C71.1033 168.674 72.0091 159.27 72.9149 149.258C73.8207 139.247 74.7264 129.388 75.6322 119.68C76.538 109.669 77.2928 100.416 77.8967 91.9213C78.5005 83.427 78.8024 76.2978 78.8024 70.5337C78.8024 62.9495 78.5005 55.6685 77.8967 48.691C77.2928 41.7135 76.0851 37.4663 74.2736 35.9494C71.5562 36.8595 66.7254 42.6236 59.7812 53.2415C52.8369 63.5561 43.9301 81.9101 33.0608 108.303C31.5512 111.64 29.2867 114.219 26.2675 116.039C23.2482 117.86 20.078 118.77 16.7568 118.77C11.6241 118.77 7.54813 117.101 4.52887 113.764C1.50962 110.124 0 106.028 0 101.477C0 99.3539 0.452887 97.0786 1.35866 94.6517C14.9453 62.191 27.6261 38.3764 39.4012 23.2079C51.4782 7.73595 63.4043 0 75.1793 0C82.1236 0 88.0111 1.82025 92.8419 5.4607C96.5 8.21737 101.981 13.236 105 19C108.019 24.764 109.792 31.0225 111 38C112.471 46.5 112.769 52.3314 112.769 59.6123C112.769 65.073 112.316 73.5674 111.41 85.0955C110.806 96.6235 109.901 109.062 108.693 122.41C107.485 135.455 106.278 148.5 105.07 161.545C104.164 174.59 103.258 185.511 102.353 194.309Z" fill="url(#paint0_linear_447_753)" style="mix-blend-mode:lighten"></path><defs><linearGradient id="paint0_linear_447_753" x1="-328.032" y1="-108.844" x2="420.927" y2="137.405" gradientUnits="userSpaceOnUse"><stop stop-color="#253BFE"></stop><stop offset="1" stop-color="#FF0000"></stop></linearGradient></defs></svg>